<svg width="50" height="50" viewBox="0 0 50 50" fill="none" xmlns="http://www.w3.org/2000/svg">
<path d="M27.083 17.7083H18.7497C14.7226 17.7083 11.458 14.4437 11.458 10.4167C11.458 6.38958 14.7226 3.125 18.7497 3.125H27.083V17.7083Z" fill="#E64A19"/>
<path d="M26.0413 32.2918H18.7497C14.7226 32.2918 11.458 29.0272 11.458 25.0002C11.458 20.9731 14.7226 17.7085 18.7497 17.7085H26.0413V32.2918Z" fill="#7C4DFF"/>
<path d="M18.7497 46.8748C14.7226 46.8748 11.458 43.6103 11.458 39.5832C11.458 35.5561 14.7226 32.2915 18.7497 32.2915H26.0413V39.5832C26.0413 43.6103 22.7768 46.8748 18.7497 46.8748Z" fill="#66BB6A"/>
<path d="M33.3337 17.7083H26.042V3.125H33.3337C37.3607 3.125 40.6253 6.38958 40.6253 10.4167C40.6253 14.4437 37.3607 17.7083 33.3337 17.7083Z" fill="#FF7043"/>
<path d="M33.3337 32.2918C37.3607 32.2918 40.6253 29.0272 40.6253 25.0002C40.6253 20.9731 37.3607 17.7085 33.3337 17.7085C29.3066 17.7085 26.042 20.9731 26.042 25.0002C26.042 29.0272 29.3066 32.2918 33.3337 32.2918Z" fill="#29B6F6"/>
</svg>
