<svg width="51" height="51" viewBox="0 0 51 51" fill="none" xmlns="http://www.w3.org/2000/svg">
<g clip-path="url(#clip0_4249_1217)">
<path d="M15.2969 41.8178C14.825 40.9928 14.7958 40.0053 15.1573 39.1418H5.40105L20.3167 13.797L25.1635 22.0335L27.5813 17.9262L23.0417 10.2137C22.4677 9.23763 21.45 8.65534 20.3177 8.6543C20.3177 8.6543 20.3177 8.6543 20.3167 8.6543C19.1854 8.6543 18.1667 9.23659 17.5917 10.2126L0.917713 38.5428C0.343755 39.5178 0.335422 40.7335 0.89688 41.7158C1.45834 42.698 2.51146 43.3085 3.64271 43.3085H17.6406C16.6698 43.2126 15.7865 42.6751 15.2969 41.8178Z" fill="#1DE9B6"/>
<path d="M50.0758 38.7676L35.3133 13.6854C34.7613 12.7479 33.7831 12.1885 32.6956 12.1885C31.6081 12.1885 30.629 12.7479 30.0769 13.6854L27.5811 17.926L29.9988 22.0333L32.6956 17.452L45.2321 39.1416H40.0238C40.2925 39.977 40.1811 40.9374 39.7363 41.7156C39.1748 42.6979 38.03 43.3083 36.8988 43.3083C36.8998 43.3218 36.8977 43.2947 36.8988 43.3083H47.3154C48.4019 43.3083 49.554 42.7614 50.0936 41.8176C50.6342 40.8749 50.6269 39.7062 50.0758 38.7676Z" fill="#00BFA5"/>
<path d="M40.0241 39.1419C39.9532 38.9231 39.8345 38.745 39.7157 38.5429L29.9991 22.0336L27.5814 17.9263L25.1636 22.0336L15.3147 38.7679C15.2449 38.8856 15.2095 39.0169 15.1574 39.1419C14.7959 40.0054 14.8241 40.994 15.297 41.8179C15.7866 42.6742 16.6699 43.2117 17.6407 43.3086H36.9907C38.122 43.3086 39.1741 42.6981 39.7355 41.7159C40.1814 40.9377 40.2928 39.9773 40.0241 39.1419ZM27.5814 26.1409L35.2334 39.1419H19.9303L27.5814 26.1409Z" fill="#00838F"/>
</g>
<defs>
<clipPath id="clip0_4249_1217">
<rect width="50" height="50" fill="white" transform="translate(0.44043 0.600098)"/>
</clipPath>
</defs>
</svg>
