<svg width="50" height="50" viewBox="0 0 50 50" fill="none" xmlns="http://www.w3.org/2000/svg">
<path d="M43.75 6.25H6.25V43.75H43.75V6.25Z" fill="#1976D2"/>
<path d="M28.635 22.9165H14.8193V26.3165H19.7745V41.6665H23.7006V26.3165H28.635V22.9165Z" fill="white"/>
<path d="M40.8269 27.171C40.8269 27.171 38.9654 25.9294 36.8613 25.9294C34.7571 25.9294 33.9998 26.9294 33.9998 27.9981C33.9998 30.7565 41.6883 30.4804 41.6883 36.0315C41.6883 44.5825 29.9654 40.7898 29.9654 40.7898V36.6877C29.9654 36.6877 32.2071 38.3773 34.8956 38.3773C37.5842 38.3773 37.4821 36.619 37.4821 36.3773C37.4821 33.8262 29.8623 33.8262 29.8623 28.171C29.8623 20.4825 40.9644 23.5158 40.9644 23.5158L40.8269 27.171Z" fill="white"/>
</svg>
